<svg xmlns="http://www.w3.org/2000/svg" width="20" height="20" viewBox="0 0 64 64">
  <g fill="#fff">
    <path d="M2 0h60c1.104 0 2 .896 2 2v52c0 1.104-.896 2-2 2H6c-1.104 0-2-.896-2-2V2C4.896 0 5 0 6 0zM58 56H8c-2.21 0-4-1.79-4-4V4c0-2.21 1.79-4 4-4h50c2.21 0 4 1.79 4 4v48c0 2.21-1.79 4-4 4z"/>
    <path d="M16 16h32c2.21 0 4 1.79 4 4s-1.79 4-4 4H16c-2.21 0-4-1.79-4-4s1.79-4 4-4zm0 12h32c2.21 0 4 1.79 4 4s-1.79 4-4 4H16c-2.21 0-4-1.79-4-4s1.79-4 4-4zm0 12h32c2.21 0 4 1.79 4 4s-1.79 4-4 4H16c-2.21 0-4-1.79-4-4s1.79-4 4-4z"/>
  </g>
</svg>
