<svg xmlns="http://www.w3.org/2000/svg" width="20" height="20" viewBox="0 0 64 64">
  <g fill="#fff">
    <path d="M60 0H4C1.789 0 0 1.789 0 4v56c0 2.211 1.789 4 4 4h56c2.211 0 4-1.789 4-4V4c0-2.211-1.789-4-4-4zm-7 54H11c-.553 0-1-.447-1-1s.447-1 1-1h42c.553 0 1 .447 1 1s-.447 1-1 1zm0-6H11c-.553 0-1-.447-1-1s.447-1 1-1h42c.553 0 1 .447 1 1s-.447 1-1 1zM11 28h18c.553 0 1 .447 1 1s-.447 1-1 1H11c-.553 0-1-.447-1-1s.447-1 1-1zm-1-5c0-.553.447-1 1-1h18c.553 0 1 .447 1 1s-.447 1-1 1H11c-.553 0-1-.447-1-1zm1 11h18c.553 0 1 .447 1 1s-.447 1-1 1H11c-.553 0-1-.447-1-1s.447-1 1-1zm0 6h18c.553 0 1 .447 1 1s-.447 1-1 1H11c-.553 0-1-.447-1-1s.447-1 1-1zm43 1c0 .553-.447 1-1 1H34c-.553 0-1-.447-1-1V25c0-.553.447-1 1-1h18c.553 0 1 .447 1 1zm8-29H2V8c0-1.104.896-2 2-2h56c1.104 0 2 .896 2 2z"/>
    <path d="M7 4C5.343 4 4 5.343 4 7s1.343 3 3 3 3-1.343 3-3-1.343-3-3-3zm0 4c-.553 0-1-.447-1-1s.447-1 1-1 1 .447 1 1-.447 1-1 1z"/>
    <path d="M33 4H15c-1.657 0-3 1.343-3 3s1.343 3 3 3h18c1.657 0 3-1.343 3-3s-1.343-3-3-3zm0 4H15c-.553 0-1-.447-1-1s.447-1 1-1h18c.553 0 1 .447 1 1s-.447 1-1 1z"/>
  </g>
</svg>
