<svg xmlns="http://www.w3.org/2000/svg" width="20" height="20" viewBox="0 0 64 64">
  <g fill="#fff">
    <path d="M32 0C14.33 0 0 14.33 0 32s14.33 32 32 32 32-14.33 32-32S49.67 0 32 0zm0 58c-14.35 0-26-11.65-26-26S17.65 6 32 6s26 11.65 26 26-11.65 26-26 26zm11.58-36c-3.06 0-5.57 2.49-5.57 5.57v1.88h-3.12v3.12h3.12V58h3.12V25.57h2.87l.43-3.12h-3.3v-1.2c0-.85.08-1.12 1.12-1.12h2.12v-3.12h-2.12c-2.76 0-4.83 1.43-4.83 4.36zm-24.28 3.36c-.76 0-1.45-.29-1.98-.79L12 27.29c-.5-.55-.79-1.24-.79-1.98v-5.16c0-.76.29-1.45.79-1.98l6.3-6.3c.55-.5 1.24-.79 1.98-.79h5.16c.76 0 1.45.29 1.98.79l6.3 6.3c.5.55.79 1.24.79 1.98v5.16c0 .76-.29 1.45-.79 1.98l-6.3 6.3c-.55.5-1.24.79-1.98.79h-5.16z"/>
  </g>
</svg>
