<svg xmlns="http://www.w3.org/2000/svg" width="20" height="20" viewBox="0 0 64 64">
  <g fill="#fff">
    <path d="M12 0h40c6.627 0 12 5.373 12 12v40c0 6.627-5.373 12-12 12H12c-6.627 0-12-5.373-12-12V12C0 5.373 5.373 0 12 0zm0 4c-4.418 0-8 3.582-8 8v40c0 4.418 3.582 8 8 8h40c4.418 0 8-3.582 8-8V12c0-4.418-3.582-8-8-8H12zm28 24H24c-1.104 0-2 .896-2 2s.896 2 2 2h16c1.104 0 2-.896 2-2s-.896-2-2-2zm0-8H24c-1.104 0-2 .896-2 2s.896 2 2 2h16c1.104 0 2-.896 2-2s-.896-2-2-2zm-16 16h16c1.104 0 2-.896 2-2s-.896-2-2-2H24c-1.104 0-2 .896-2 2s.896 2 2 2z"/>
  </g>
</svg>
